<?xml version="1.0" encoding="UTF-8"?>
<svg xmlns="http://www.w3.org/2000/svg" version="1.1" viewBox="0 0 175 30">
  <defs>
    <style>
      .cls-1 {
        fill: #22ac38;
      }

      .cls-2 {
        fill: #541b85;
      }

      .cls-3 {
        fill: #231815;
      }

      .cls-4 {
        fill: #e60012;
      }
    </style>
  </defs>
  <!-- Generator: Adobe Illustrator 28.7.1, SVG Export Plug-In . SVG Version: 1.2.0 Build 142)  -->
  <g>
    <g id="_レイヤー_1" data-name="レイヤー_1">
      <g>
        <g>
          <g>
            <polygon class="cls-4" points="29.7 0 17.9 11.3 21.3 14.6 29.7 6.5 42.3 18.7 49.1 18.7 29.7 0"/>
            <polygon class="cls-1" points="12.7 6.4 0 18.5 6.8 18.6 12.7 12.9 17.9 17.9 21.3 14.6 17.9 11.3 12.7 6.4"/>
          </g>
          <g>
            <path class="cls-2" d="M11,29.9h-2.9v-5.3l-2.6,3.1h-.2l-2.6-3.1v5.3H0v-9.1h2.6l2.9,3.4,2.9-3.4h2.6v9.1Z"/>
            <path class="cls-2" d="M23.5,29.9h-2.9l-.8-1.8h-4.1l-.8,1.8h-2.9l4.2-9.1h3.2l4.2,9.1ZM19.2,26.5l-1.4-3.3-1.4,3.3h2.8Z"/>
            <path class="cls-2" d="M33.6,29.9h-3.1l-.7-1.6c-.3-.6-.5-1-.7-1.3-.2-.3-.4-.4-.6-.5-.2,0-.5-.1-.8-.1h-.3v3.6h-2.9v-9.1h4.9c.8,0,1.4.2,1.9.5.5.3.9.7,1.1,1.1.2.4.3.9.3,1.2s0,.8-.3,1.2c-.2.3-.4.5-.6.7-.2.1-.4.3-.7.4.3.2.6.4.8.6.2.2.5.7.8,1.4l1,2ZM29.8,23.7c0-.4-.1-.7-.4-.9-.3-.2-.8-.2-1.4-.2h-.6v2.2h.6c.7,0,1.2,0,1.4-.2.3-.1.4-.4.4-.8Z"/>
            <path class="cls-2" d="M44,25.8c0,.8-.2,1.4-.5,2-.3.5-.7,1-1.2,1.3s-1,.5-1.6.7c-.6.1-1.2.2-1.7.2s-1.6-.1-2.3-.4c-.8-.3-1.4-.7-1.9-1.3-.5-.6-.8-1.5-.8-2.5v-5h2.8v4.3c0,.6,0,1.1.3,1.5.2.4.4.7.8.9.3.2.7.3,1.1.3s.8,0,1.1-.3c.3-.2.6-.5.8-.9.2-.4.3-.9.3-1.5v-4.3h2.9v5Z"/>
            <path class="cls-2" d="M49.1,29.9h-2.9v-9.1h2.9v9.1Z"/>
          </g>
        </g>
        <g>
          <path class="cls-3" d="M66.9,19.6v-1.6h1.9v1.6h2.6v1.8h-2.6v1.2h2.8v1.8h-2.3c.9,1.6,2,2.3,2.5,2.7l-.8,2.1c-1-.8-1.8-1.8-2.3-2.9v3.6h-1.9v-3.9c-.6,1.2-1.4,2.3-2.5,3.2l-1.1-1.8c1.5-.9,2.3-2,2.9-3h-2.3c.3.3.4.5.6.6l-1.1,1.4c-.5-1-.6-1.2-.7-1.7v5.2h-1.8v-4.7c-.4,1.4-.9,2.1-1.2,2.6l-.6-2.5c.8-.9,1.1-1.6,1.7-3.4h-1.4v-1.7h1.6v-2.1h1.8v2.1h1.2v.8c.6-1.2.8-2.2.8-2.6l1.7.2c0,.3-.1.6-.2,1.2h.7ZM64.9,22.6l-1.1-.7h-1.1v.5c.2.6.7,1.3,1.2,1.9v-1.7h1ZM66.9,22.6v-1.2h-1.2c-.3.6-.5,1-.6,1.2h1.9Z"/>
          <path class="cls-3" d="M72.3,27.6c0,0,2.2-.1,2.4-.2v-3h-2.1v-1.8h6.1v1.8h-2v2.8c1.5-.1,2-.2,2.5-.3v1.8c-1.4.3-2.1.3-6.7.8l-.2-2ZM83.4,19.7h1.2v1.8h-3.6c0,1.2.2,3.4,1,5.1,0,.2.4.8.7.8s1.1-.9,1.4-1.7l.8,2c-.2.6-.9,2.1-2.1,2.1s-1.2-.3-1.6-.7c-1.9-2-2-5.6-2.1-7.6h-6.6v-1.8h6.6c0-.2,0-1.6,0-1.7h2.1v1.7h1.3c-.3-.5-.6-.8-.9-1.2l1.7-.6c.2.1.4.2,1.2,1.5l-.8.3Z"/>
          <path class="cls-3" d="M88,22.2c-1,.6-1.5.8-2,1l-1-1.9c3.2-1.2,4.5-2.2,5.3-3.3h2.3c.6.6,1.9,2,5.2,3.3l-1,1.9c-.4-.2-1-.4-1.9-1v.8h-6.9v-.7ZM95.5,30c-.1-.2-.3-.5-.5-.9-2.2.3-6.6.5-9,.5l-.3-1.9c0,0,1.7,0,1.9,0,.1-.2.5-1,.9-2.2h-2.9v-1.8h11.7v1.8h-2.7c.6.6,1.5,1.5,2.7,3.5l-1.9.9ZM93.5,21.2c-1.1-.8-1.7-1.4-2-1.8-.3.4-.8.9-2,1.8h4ZM94.3,25.5h-3.6c-.5,1-.6,1.4-1,2.2,1.5,0,2.9,0,4.2-.1-.5-.7-.8-1-1.1-1.3l1.5-.7Z"/>
          <path class="cls-3" d="M101.9,29.9h-2v-4.2c-.5.4-1,.7-1.4,1l-.5-2.2c1.5-.8,2.6-2.2,3.1-3h-2.8v-1.7h1.6v-1.7h2v1.7h1.3v1.7c-.2.5-.4.9-1,1.8.7.7,1.3,1.1,1.8,1.3l-1,1.8c-.3-.2-.6-.6-1.1-1.2v4.6ZM105.8,18h2v3.1h2.5v1.9h-2.5v4.6h2.7v1.9h-7.7v-1.9h3v-4.6h-2.3v-1.9h2.3v-3.1Z"/>
          <path class="cls-3" d="M117.7,19.1c.7.4,1.8,1.1,3.3,2.3,3.1-1.9,4.3-3.8,4.8-4.7h-13.3v-3.5h18.9c-1,5.3-4.1,8-7.7,10.6,1.5,1.4,2.3,2.2,3.1,3.2l-3.4,2.7c-2.8-3.7-6-6.2-8.7-8.1l3-2.5Z"/>
          <path class="cls-3" d="M140.4,17.1c0,6.5-1.1,10.4-3.8,12.9l-2.9-2.9c2.5-2.6,2.9-5.6,2.9-9.6v-5h3.9v4.6ZM146.3,24.8c1.1-.6,3.3-1.8,4.1-6.6l3.7,1.5c-.8,3.3-2.9,9.5-11.6,9.7V11.9h3.8v12.9Z"/>
          <path class="cls-3" d="M168.7,29.6h-4.1v-8.1c-3.2,1.6-5.3,2.3-6.7,2.8l-2-3.3c4.7-1.5,10.5-4,15.6-9.8l3.4,2.3c-2.5,2.6-3.9,3.6-6.3,5.4v10.6Z"/>
        </g>
      </g>
    </g>
  </g>
</svg>