<?xml version="1.0" encoding="UTF-8"?>
<svg id="_レイヤー_2" data-name="レイヤー_2" xmlns="http://www.w3.org/2000/svg" xmlns:xlink="http://www.w3.org/1999/xlink" viewBox="0 0 349.07 49.57">
  <defs>
    <style>
      .cls-1 {
        fill: #252b7c;
      }

      .cls-2 {
        fill: #231815;
      }

      .cls-3 {
        fill: url(#_名称未設定グラデーション_9);
      }
    </style>
    <radialGradient id="_名称未設定グラデーション_9" data-name="名称未設定グラデーション 9" cx="25.46" cy="10.26" fx="25.46" fy="10.26" r="10.26" gradientUnits="userSpaceOnUse">
      <stop offset="0" stop-color="#fff"/>
      <stop offset=".59" stop-color="#e60012"/>
    </radialGradient>
  </defs>
  <g id="_レイヤー_1-2" data-name="レイヤー_1">
    <g>
      <path class="cls-2" d="M159.67,41.24c-.07,1.26-.42,2.15-1.04,2.67-.4.32-.94.49-1.63.52-.74.05-1.34-.04-1.78-.26-.1-.07-.27-.2-.52-.37-.15-.1-.31-.24-.48-.41-.32-.27-.59-.63-.82-1.08-.59-.82-1.46-1.74-2.6-2.78-1.06-.96-2.24-1.89-3.53-2.78-2.62-1.88-4.8-3.15-6.53-3.82-.74-.3-1.04-.59-.89-.89.17-.27.59-.41,1.26-.41,2.92-.1,6.21.53,9.87,1.89,1.63.64,3.19,1.39,4.68,2.23,1.43.89,2.54,1.82,3.3,2.78.49.62.73,1.52.71,2.71ZM157.07,25.65c-.82-.84-1.86-1.53-3.12-2.08-1.06-.49-2.26-.85-3.6-1.08-.59-.12-1.2-.2-1.82-.22-.12-.02-.26-.04-.41-.04-.22-.02-.37-.04-.45-.04-.4-.02-.68-.04-.85-.04h-1.52c-.67.05-1.11.07-1.34.07-.69.12-1.08.27-1.15.45-.1.3.22.59.96.89,1.29.54,2.65,1.31,4.08,2.3,1.61,1.11,3.08,2.46,4.42,4.04.57.77,1.24,1.34,2,1.71,1.16.37,2.19.11,3.08-.78.57-.59.82-1.48.74-2.67-.15-1.14-.5-1.98-1.04-2.52ZM158.52,15.45c-.89-.84-1.97-1.48-3.23-1.93-.62-.22-1.22-.41-1.82-.56-.64-.12-1.27-.23-1.89-.33-1.19-.12-2.38-.17-3.56-.15-1.14.07-2.08.15-2.82.22-.69.12-1.08.3-1.15.52-.07.3.27.57,1.04.82.72.3,1.35.57,1.89.82.77.37,1.5.78,2.19,1.22.15.1.33.22.56.37.22.17.42.31.59.41.27.2.64.48,1.11.85.84.64,1.6,1.34,2.26,2.08.57.64,1.26,1.15,2.08,1.52.57.15,1.16.15,1.78,0,.69-.17,1.2-.45,1.52-.82.54-.64.74-1.52.59-2.63-.17-1.09-.56-1.89-1.15-2.41Z"/>
      <path class="cls-2" d="M172.06,20.61c-.12-.32-.24-.63-.33-.93-.03-.1-.05-.19-.07-.26-.99-3.19-2.41-4.82-4.27-4.9-.47-.05-.69-.19-.67-.41.05-.2.16-.35.33-.45,1.56-.79,3.35-1.24,5.38-1.34,2.2-.17,3.67.11,4.42.85.32.35.48.85.48,1.52-.03.37-.04.72-.04,1.04,0,.4.04.83.11,1.3.07.2.11.37.11.52.12.5.2,1,.22,1.52.05.3.07.56.07.78.07.3.11.56.11.78.3-.12.59-.19.89-.19.47-.12.78-.2.93-.22l.11-.04c.45-.1.85-.19,1.22-.26.45-.12.87-.22,1.26-.3.37-.1.87-.19,1.48-.26.94-.17,2-.38,3.19-.63,1.16-.27,2.15-.56,2.97-.85.02-.02.07-.11.15-.26.27-.4.61-.59,1-.59.79,0,1.74.3,2.86.89.96.54,1.74,1.16,2.34,1.86.89,1.09.93,2.08.11,2.97-.12.17-.37.38-.74.63-.12.1-.27.19-.45.26-.15.15-.3.26-.45.33-.74.72-1.63,1.48-2.67,2.3-1.01.79-1.97,1.48-2.86,2.08-1.86,1.29-3.13,2.12-3.82,2.49-.64.37-1.08.45-1.3.22-.2-.22-.07-.63.37-1.22.17-.15.37-.38.59-.71.27-.37.46-.64.56-.82.2-.3.37-.59.52-.89.17-.25.33-.56.48-.93.3-.57.59-1.15.89-1.74.27-.62.48-1.11.63-1.48-2.6.37-5.16.83-7.68,1.37-.35.15-.82.3-1.41.45l.04.15v.15c.1.22.19.5.26.82.12.35.2.59.22.74.17.52.33,1.04.48,1.56.32,1.04.63,2.05.93,3.04.35,1.09.67,2.15.96,3.19.37,1.11.71,2.19,1,3.23.12.3.22.59.3.89.2.52.37,1.01.52,1.48.2.57.3,1.01.3,1.34.12.94.02,1.83-.3,2.67-.2.45-.67.78-1.41,1-.77.27-1.42.3-1.97.07-.32-.1-.67-.26-1.04-.48-.35-.25-.67-.5-.96-.74-.62-.57-1.08-1.08-1.37-1.52-.2-.37-.19-.74.04-1.11.2-.25.25-.59.15-1.04-.92-5.12-2.02-9.72-3.3-13.8-.03.02-.42.22-1.19.59-.27.15-.71.37-1.3.67-.1.07-.19.11-.26.11-1.56.77-2.89.59-4.01-.52-.35-.35-.68-.75-1-1.22-.12-.17-.27-.42-.45-.74-.15-.2-.31-.46-.48-.78-.59-1.14-1.04-2.13-1.34-2.97-.12-.49-.07-.82.15-.96.22-.05.45.05.67.3.42.54,1,.89,1.74,1.04.67.12,1.38.14,2.15.04.25,0,.48-.04.71-.11.25-.05.48-.09.71-.11.22-.05.45-.09.67-.11.15-.02.37-.07.67-.15.25-.07.53-.12.85-.15.07-.02.12-.04.15-.04-.12-.35-.24-.68-.33-1Z"/>
      <path class="cls-2" d="M222.08,38.42c.37.74.43,1.65.19,2.71-.25,1.14-.75,1.9-1.52,2.3-.99.52-2.03.4-3.12-.37-.17-.22-.32-.4-.45-.52-.1-.15-.22-.33-.37-.56-.22-.4-.4-.82-.52-1.26-.32-.92-.84-1.9-1.56-2.97-.67-.96-1.36-1.83-2.08-2.6-1.48-1.48-2.88-2.56-4.19-3.23-.69-.32-.96-.64-.82-.96.17-.22.61-.35,1.3-.37,1.19,0,2.46.2,3.82.59,1.51.4,3.01,1.05,4.49,1.97.17-.15.36-.33.56-.56.07-.07.16-.17.26-.3.1-.1.19-.2.26-.3.17-.17.37-.38.59-.63.22-.3.41-.53.56-.71.15-.15.35-.37.59-.67.22-.17.42-.41.59-.71.45-.54.83-1.01,1.15-1.41.17-.22.36-.45.56-.67.22-.3.4-.52.52-.67.07-.07.16-.19.26-.33.07-.07.15-.17.22-.3.22-.22.37-.42.45-.59.54-.74.94-1.32,1.19-1.74-.15,0-.46-.04-.93-.11-.45-.02-.79-.06-1.04-.11-.22,0-.61-.02-1.15-.07-.15,0-.33-.01-.56-.04-.22,0-.42-.01-.59-.04-1.73-.07-3.22-.1-4.45-.07h-.37c-.47.02-.8.05-1,.07-.3.02-.61.06-.93.11-.3.02-.62.07-.96.15-.17.02-.33.06-.48.11-.07,0-.24.02-.48.07-.22,0-.56.06-1,.19l-2.08.52c-.07.02-.25.07-.52.15-.15.02-.33.07-.56.15-.47.15-.85.26-1.15.33-1.66.45-2.97.04-3.93-1.22-.45-.67-.88-1.68-1.3-3.04-.15-.52-.3-1.09-.45-1.71-.03-.22-.09-.48-.19-.78-.03-.3-.07-.53-.15-.71,0-.52.09-.82.26-.89.17-.07.36.06.56.41.37.69,1,1.2,1.89,1.52.37.1.8.19,1.3.26.3,0,.74.01,1.34.04h1.74c.45,0,.92-.01,1.41-.04.25,0,.51-.01.78-.04.32,0,.58-.01.78-.04.54,0,1.11-.01,1.71-.04h.89c.37,0,.67-.01.89-.04.37,0,.75-.01,1.15-.04.25,0,.63-.01,1.15-.04.52,0,.94-.01,1.26-.04h1.3c.45,0,.78-.01,1-.04h.89c.4,0,.71-.01.93-.04h.96c.45,0,.77-.01.96-.04.45,0,1.05-.02,1.82-.07.59,0,1.11-.04,1.56-.11v-.15s.07-.06.15-.19l.15-.15c.3-.3.67-.45,1.11-.45.74.07,1.71.58,2.89,1.52,1.06.82,1.84,1.63,2.34,2.45.3.59.42,1.08.37,1.45,0,.3-.2.69-.59,1.19-.07.15-.16.27-.26.37-.17.25-.47.48-.89.71l-.45.22c-.1.02-.26.14-.48.33-.37.37-1.01.94-1.93,1.71-.3.22-.53.41-.71.56-.15.15-.27.26-.37.33-.03.02-.09.07-.19.15-.07.07-.14.12-.19.15-.07.07-.21.19-.41.33-.07.02-.22.12-.45.3-.15.15-.43.37-.85.67-2.45,1.93-4.85,3.67-7.2,5.23,1.14.77,2.05,1.91,2.75,3.41Z"/>
      <path class="cls-2" d="M252.74,29.89c-.12-.02-.24-.02-.33,0-.17-.02-.31-.05-.41-.07-.12-.07-.2-.23-.22-.48-.07-.82-.24-1.42-.48-1.82-.1-.12-.22-.23-.37-.33v2.45c-.03.79-.19,1.27-.48,1.45-.4.17-1.11.26-2.15.26-1.19.02-1.91-.05-2.15-.22-.32-.22-.48-.72-.48-1.48v-6.98h-1.48v6.09c-.03.57-.12.93-.3,1.08-.25.22-.87.35-1.86.37-.94.02-1.52-.04-1.74-.19-.22-.17-.33-.59-.33-1.26v-8.2c0-.17.04-.27.11-.3.05-.02.15-.02.3,0l2.97,1.22h2.34v-1.78h-7.01c-.37-.02-.56-.23-.56-.63,0-.37.19-.56.56-.56h.3c.52-1.09.87-2.2,1.04-3.34.2-1.16.26-2.13.19-2.89.05-.3.09-.46.11-.48.07-.07.23-.1.48-.07l4.12.56c.37.07.63.16.78.26v-1.41c-.03-.2.01-.35.11-.45.07-.12.2-.17.37-.15l4.38.33c.49.02.83.12,1,.3.2.15.3.35.3.59,0,.27-.16.52-.48.74-.3.22-.43.52-.41.89v1.71h.37c.47-.69.96-1.39,1.48-2.08.12-.17.26-.26.41-.26.2,0,.38.07.56.22,1.34.94,2.39,1.71,3.15,2.3.2.17.3.31.3.41,0,.25-.04.42-.11.52-.05.05-.09.07-.11.07h-6.05v2.23h1c.45-.69.9-1.35,1.37-1.97.12-.17.23-.26.33-.26.15.02.31.09.48.19,1.19.96,2.13,1.72,2.82,2.26.17.15.26.27.26.37,0,.25-.04.42-.11.52-.05.05-.09.07-.11.07h-6.05v1.78h1.37l1.41-1.41c.12-.15.23-.22.33-.22.12,0,.3.07.52.22l2.71,1.74c.3.2.45.41.45.63-.03.32-.24.57-.63.74-.3.12-.45.31-.45.56v3.38c-.03.79-.26,1.45-.71,1.97h2.45c.77.02,1.26.12,1.48.3.25.17.37.41.37.71-.03.35-.27.64-.74.89-.54.32-.8.64-.78.96v.07h6.42c.02-.12.07-.2.15-.22-.22-.02-.41-.04-.56-.04-.52-.1-.78-.41-.78-.93,0-1.48-.2-2.57-.59-3.27-.37-.79-1.15-1.31-2.34-1.56-.35-.1-.51-.22-.48-.37.07-.17.23-.26.48-.26,1.34.15,2.35.21,3.04.19.32-.02.53-.09.63-.19.12-.12.2-.33.22-.63v-13.43c-.03-.12.01-.23.11-.33.07-.1.19-.14.33-.11l4.6.41c1.06.05,1.61.33,1.63.85.05.45-.12.74-.52.89-.37.12-.54.35-.52.67v13.54c0,1.51-.26,2.57-.78,3.19.82.64,1.52,1.2,2.12,1.67.2.17.3.35.3.52,0,.25-.05.42-.15.52-.07.05-.12.07-.15.07h-7.42c.84.52,2.02,1.26,3.53,2.23.54.35.83.61.85.78.05.22,0,.42-.15.59-.17.15-.46.17-.85.07-.37-.05-.72-.06-1.04-.04-.87.2-1.87.41-3.01.63,2.4.92,5.17,1.65,8.31,2.19.3.05.45.16.45.33s-.12.3-.37.37c-.5.22-.96.57-1.41,1.04-.64.62-1.24,1.65-1.78,3.08-.25.74-.45,1.15-.59,1.22-.2.12-.5.11-.89-.04-2.23-.72-4.04-1.65-5.46-2.78-1.01-.79-2.02-1.87-3.01-3.23-.1.15-.27.27-.52.37-1.39.62-3.09,1.34-5.12,2.15-2.18.87-4.39,1.71-6.64,2.52-.42.07-.68.3-.78.67-.12.47-.27.75-.45.85-.17.12-.35.15-.52.07-.22-.07-.46-.42-.71-1.04-.89-1.86-1.53-3.24-1.93-4.16-.17-.5.05-.75.67-.78.89,0,2.19-.04,3.9-.11v-1.97c-2.3.59-5.1,1.11-8.39,1.56-.4.05-.61,0-.63-.15,0-.2.16-.35.48-.45,2.65-1.04,4.71-2.02,6.2-2.93,1.19-.84,2.34-1.87,3.45-3.08h-8.98c-.37-.02-.56-.23-.56-.63,0-.37.19-.56.56-.56h13.66v-2.12ZM245.65,18.49v-2.23h-2.49c-.3.32-.57.61-.82.85-.59.47-1.24.93-1.93,1.37h5.23ZM245.65,15.08v-1.86s-.12.11-.22.19c-.4.22-.68.53-.85.93-.17.25-.33.5-.48.74h1.56ZM250.92,25.95c.12-.02.27-.02.45,0,.4.02.68-.01.85-.11.12-.1.19-.22.19-.37v-2.82h-1.48v3.3ZM258.34,39.27c.17-.07.31-.1.41-.07-1.04-1.48-1.97-3.49-2.78-6.01-1.04.89-2.05,1.67-3.04,2.34v4.3c1.98-.2,3.79-.38,5.42-.56ZM256.86,33.19c.82.99,2.02,1.91,3.6,2.75.12.07.23.15.33.22,1.14-1.14,2.02-2.13,2.63-2.97h-6.57ZM262.87,12.89c.45.05.75.15.93.3.17.15.26.35.26.59-.03.22-.16.45-.41.67-.3.22-.43.5-.41.82v8.13c-.05.74-.2,1.19-.45,1.34-.37.17-1.04.26-2,.26-1.11.02-1.79-.04-2.04-.19-.3-.25-.45-.72-.45-1.41v-10.21c-.03-.2.01-.35.11-.45.07-.1.2-.15.37-.15l4.08.3Z"/>
      <path class="cls-2" d="M281.13,11.37c.07-.07.33-.1.78-.07l6.16.59c.84.07,1.27.31,1.3.71.05.47-.19.83-.71,1.08-.52.27-.82.63-.89,1.08-.74,2.92-1.83,5.65-3.27,8.2.17,0,.35.01.52.04.82.15,1.22.42,1.22.82-.03.35-.2.64-.52.89-.3.25-.45.57-.45.96v18.96c-.03.64-.19,1.09-.48,1.34-.32.25-1.16.41-2.52.48-1.36.07-2.17.02-2.41-.15-.37-.3-.56-.68-.56-1.15v-15.77c-.94.79-1.91,1.57-2.89,2.34-.27.25-.48.28-.63.11-.12-.17-.11-.35.04-.52,1.29-1.9,2.39-4.54,3.3-7.9.99-3.64,1.6-7.43,1.82-11.39.02-.32.09-.53.19-.63ZM293.3,22.69c-1.76,2.28-4.09,4.45-7.01,6.53-.3.2-.5.25-.59.15-.05-.15.01-.35.19-.59,1.9-2.82,3.24-5.88,4.01-9.17.74-2.89,1.12-5.32,1.15-7.27,0-.37.04-.61.11-.71.1-.1.33-.14.71-.11l5.83.56c.96.1,1.46.35,1.48.74,0,.35-.2.63-.59.85-.52.3-.9.75-1.15,1.37-.5,1.24-1,2.39-1.52,3.45h6.12c.89-1.11,1.79-2.23,2.71-3.34.22-.27.45-.41.67-.41.27,0,.53.11.78.33,1.81,1.44,3.27,2.57,4.38,3.41.25.22.37.42.37.59,0,.25-.05.42-.15.52-.1.05-.16.07-.19.07h-10.58v6.09h.82c.89-1.11,1.79-2.23,2.71-3.34.22-.27.45-.41.67-.41.27,0,.53.11.78.33,1.81,1.44,3.27,2.57,4.38,3.41.25.22.37.42.37.59,0,.25-.05.42-.15.52-.1.05-.16.07-.19.07h-9.39v6.23h.82c.89-1.11,1.79-2.23,2.71-3.34.22-.27.45-.41.67-.41.27,0,.53.11.78.33,1.81,1.44,3.27,2.57,4.38,3.41.25.22.37.42.37.59,0,.25-.05.42-.15.52-.1.05-.16.07-.19.07h-9.39v9.8c0,.96-.2,1.57-.59,1.82-.42.27-1.22.42-2.41.45-1.41.07-2.28-.01-2.6-.26-.32-.27-.48-.94-.48-2v-22.38c-.25.3-.46.59-.63.89Z"/>
      <path class="cls-2" d="M313.34,14.45c0-.37.19-.56.56-.56h9.8c.79-1.06,1.6-2.13,2.41-3.19.2-.25.38-.37.56-.37.2.02.42.12.67.3,1.61,1.36,2.91,2.46,3.9,3.3.22.2.33.38.33.56,0,.25-.05.42-.15.52-.05.05-.11.07-.19.07h-17.33c-.37-.02-.56-.23-.56-.63ZM315.38,17.45c.17-.1.45-.06.82.11,2.05.82,3.83,1.52,5.34,2.12h2.15l1.86-1.78c.17-.17.35-.26.52-.26s.41.09.71.26l3.79,2.23c.52.3.78.59.78.89,0,.4-.27.72-.82.96-.4.2-.58.57-.56,1.11v9.69c-.03.37-.16.64-.41.82-.35.32-1.16.5-2.45.52-1.56.07-2.49-.01-2.78-.26-.27-.22-.41-.59-.41-1.11v-1.63h-2.97c-.1,2.62-.31,4.69-.63,6.2-.42,1.86-1.16,3.5-2.23,4.94-1.06,1.43-2.31,2.6-3.75,3.49-.42.22-.68.25-.78.07-.1-.2-.06-.38.11-.56.32-.74.57-1.76.74-3.04.25-1.41.41-3.12.48-5.12.12-2.4.19-5.17.19-8.31v-10.54c.02-.45.12-.71.3-.78ZM323.91,20.87h-2.93v9.05h2.93v-9.05ZM337.49,25.47v.33c-.05,4.7-.48,8.25-1.3,10.65-.82,2.18-2.2,4.12-4.16,5.83-2,1.71-4.35,3.08-7.05,4.12-.42.17-.68.17-.78,0-.07-.22,0-.41.22-.56,1.48-.87,2.76-2.08,3.82-3.64,1.19-1.66,1.98-3.69,2.38-6.09.62-2.8.93-6.09.93-9.87v-11.58c.02-.45.12-.71.3-.78.17-.1.45-.06.82.11,1.66.67,3.13,1.26,4.42,1.78.89-.47,1.79-1,2.71-1.6,1.14-.77,2.26-1.72,3.38-2.86.17-.15.31-.22.41-.22.15-.02.31.05.48.22l4.23,3.67c.47.45.59.79.37,1.04-.37.27-.75.3-1.15.07-.45-.17-.83-.21-1.15-.11-1.93.47-3.65.78-5.16.93-1.34.12-2.57.2-3.71.22v7.12h3.53c.79-1.01,1.57-2.02,2.34-3.01.22-.25.42-.37.59-.37.25.02.49.12.74.3,1.68,1.29,3.02,2.34,4.01,3.15.25.17.37.35.37.52,0,.25-.05.42-.15.52-.07.05-.12.07-.15.07h-3.19v18.41c0,.96-.2,1.57-.59,1.82-.42.27-1.22.42-2.41.45-1.41.07-2.28-.01-2.6-.26-.32-.27-.48-.94-.48-2v-18.41h-2Z"/>
    </g>
    <g>
      <path class="cls-2" d="M64.17,36.76c-.24.1-.64.15-1.21.17-.67,0-1.08-.04-1.22-.13-.19-.12-.28-.41-.28-.85v-4.99c-.57.69-1.23,1.3-1.99,1.82-.14.11-.23.14-.28.09-.06-.07-.07-.15-.02-.24.52-1.09.97-2.43,1.35-4.03.32-1.42.54-2.96.67-4.6h-1.56c-.19,0-.28-.1-.28-.3s.09-.3.28-.3h1.82v-3.73c-.01-.12,0-.21.06-.26.06-.06.14-.09.22-.07l2.49.19c.26.02.45.08.56.17.11.09.17.2.17.35-.01.15-.1.28-.26.41-.17.14-.25.3-.24.5v2.39c.21-.4.43-.79.67-1.17.06-.1.12-.15.17-.15.07,0,.15.04.24.11.52.51.95.93,1.28,1.26,0-.01,0-.02.02-.02.05-.69.07-1.56.06-2.62.01-.14.04-.23.07-.28.04-.05.1-.07.19-.06l2.76.45.02.02v-1.15c-.01-.12,0-.21.06-.26.06-.06.14-.09.22-.07l2.49.19c.26.02.45.08.56.17.11.09.17.2.17.35-.01.15-.1.28-.26.41-.19.14-.25.3-.2.5v2.52c.32-.43.65-.86.98-1.28.07-.1.15-.15.24-.15.1,0,.21.04.33.13.73.56,1.32,1.01,1.78,1.35.11.09.17.17.17.24,0,.12-.03.21-.07.26-.03.02-.04.04-.06.04h-3.41v2.97h.24c.32-.45.66-.89,1-1.34.09-.11.17-.17.26-.17.1,0,.21.04.33.13.77.61,1.38,1.08,1.84,1.43.11.07.17.15.17.24,0,.12-.03.21-.07.26-.04.02-.06.04-.07.04h-3.67c.19.73.41,1.35.69,1.87.3.57.73,1.13,1.3,1.69.52.54,1.1.95,1.74,1.22.21.07.31.15.3.24-.01.11-.07.19-.19.24-.15.1-.3.27-.45.5-.25.4-.47.95-.67,1.67-.05.28-.11.43-.19.45-.1.02-.23-.04-.39-.2-.53-.48-.95-1.05-1.26-1.69-.3-.57-.54-1.28-.72-2.13-.07-.28-.14-.58-.19-.89v5.2c-.03.46-.12.73-.28.82-.24.1-.64.15-1.21.17-.67,0-1.08-.04-1.22-.13-.19-.12-.28-.41-.28-.85v-3.45c-.92,1.19-2.29,2.25-4.12,3.19-.2.14-.42.27-.65.39-.11.05-.19.05-.24,0-.06-.07-.04-.17.07-.3,1.06-1.11,1.89-2.38,2.49-3.8.59-1.34.98-2.73,1.17-4.19h-1.74c.01.36-.06.67-.22.95-.14.28-.32.49-.56.61-.26.12-.52.14-.78.06-.27-.11-.46-.28-.58-.52-.11-.26-.12-.49-.04-.69.35-1.25.42-2.12.22-2.62-.1-.21-.27-.39-.5-.54v10.98c-.03.46-.12.73-.28.82ZM65.73,25.48c.25.21.45.43.61.67.1-.23.17-.47.22-.71.09-.43.15-.92.2-1.45h-2.32v.69c.52.26.95.53,1.28.8ZM69.92,27.11v-2.97h-1.24c-.32.57-.67,1.08-1.06,1.54-.33.38-.66.71-.96.98.05.14.1.27.15.39v.06h3.12ZM68.99,23.55h.93v-1.97c-.16.07-.27.21-.32.41-.21.62-.42,1.14-.61,1.56Z"/>
      <path class="cls-2" d="M78.4,23.68c0-.19.09-.28.28-.28h9.04c-.04-1.2-.03-2.42.02-3.66.01-.15.04-.24.09-.28.05-.01.15-.01.32,0l2.52.35c.12.02.21.04.26.06-.06-.06-.12-.11-.17-.15-.1-.05-.13-.12-.09-.2.04-.07.13-.1.28-.09.88.09,1.69.36,2.45.82.73.47,1.16.92,1.28,1.34.09.48.05.88-.11,1.19-.05.06-.09.13-.13.2.22.16.41.32.58.46.1.09.15.17.15.26,0,.12-.03.21-.07.26-.04.02-.06.04-.07.04h-4.3c.06.9.15,1.82.28,2.75.19,1.39.53,2.63,1.02,3.75.46.93.86,1.56,1.21,1.89.27.27.47.41.59.41.16-.05.46-.98.91-2.8.05-.14.12-.19.2-.15.07.02.12.11.13.26.02,2.21.22,3.59.59,4.12.2.41.3.77.3,1.08-.03.56-.21.97-.56,1.24-.43.33-.88.49-1.34.48-.21,0-.51-.08-.89-.24-.54-.24-1.08-.62-1.61-1.15-.83-.85-1.51-1.84-2.04-2.95-.71-1.66-1.19-3.42-1.47-5.29-.15-1.14-.25-2.27-.3-3.4h-9.05c-.19-.01-.28-.12-.28-.32ZM85.02,25.78c.09-.11.17-.17.24-.17.09,0,.19.04.3.13.74.62,1.34,1.11,1.8,1.48.1.09.15.17.15.26,0,.12-.03.21-.07.26-.04.02-.06.04-.07.04h-2.65v4.47c1.74-.2,2.89-.34,3.45-.43.23-.05.36-.04.37.04.01.07-.06.15-.22.24-.99.63-2.16,1.28-3.51,1.95-1.62.84-3.02,1.5-4.21,1.99-.15.07-.23.17-.24.28-.01.26-.07.43-.19.52-.09.06-.17.07-.24.02-.09-.07-.17-.24-.24-.5-.4-1.26-.72-2.36-.98-3.3-.1-.25-.02-.36.24-.35.47.02,1.4-.02,2.78-.15v-4.77h-2.52c-.19-.01-.28-.12-.28-.32,0-.19.09-.28.28-.28h4.77c.36-.48.71-.95,1.06-1.41ZM90.68,23.4h.93c.17-.26.36-.51.56-.74-.01-.04-.02-.06-.02-.07-.07-.57-.25-1.12-.52-1.65-.1-.2-.19-.37-.28-.52-.07.09-.19.17-.35.24-.19.09-.29.23-.3.43-.05.77-.06,1.54-.02,2.32Z"/>
      <path class="cls-2" d="M103.5,19.1c.06-.02.14-.03.22-.02l3.62,1c.31.07.46.21.45.41-.01.26-.17.41-.48.46-.22.02-.38.09-.46.2.78.85,1.73,1.56,2.84,2.13,1.26.63,2.8,1.04,4.62,1.22.17.01.32.02.45.04.1,0,.17.06.2.17.01.11-.04.19-.17.24-.25.11-.45.43-.61.96-.21.64-.34,1.23-.39,1.76-.05.36-.12.56-.2.59-.07.04-.24,0-.5-.11-1.46-.53-2.73-1.34-3.82-2.41-.89-.87-1.81-2.21-2.75-4.04-.73,1.24-1.64,2.36-2.73,3.36-.77.72-1.62,1.32-2.56,1.82-1,.53-2.26.96-3.79,1.3-.16.04-.25.02-.26-.06-.01-.09.02-.15.11-.2.69-.36,1.35-.87,1.99-1.54.8-.74,1.55-1.68,2.23-2.8.78-1.3,1.4-2.71,1.86-4.25.05-.15.1-.23.15-.24ZM111,28.04c.09-.12.17-.19.26-.19.09.01.19.06.32.15.8.67,1.43,1.19,1.89,1.58.11.1.17.19.17.28,0,.12-.03.21-.07.26-.04.02-.06.04-.07.04h-6.51c-1.15,1.08-2.08,1.91-2.8,2.5-.21.15-.42.3-.61.46.47-.04.97-.06,1.5-.07,1.56-.1,2.86-.17,3.92-.22-.29-.49-.64-.99-1.06-1.48-.1-.1-.14-.17-.13-.22.01-.06.07-.09.19-.07.66.07,1.41.28,2.26.63.87.37,1.53.77,1.99,1.19.45.43.72.88.83,1.34.1.62.01,1.17-.26,1.65-.31.49-.69.78-1.15.85-.46.07-.84.02-1.15-.17-.33-.2-.56-.56-.67-1.08-.14-.69-.3-1.3-.5-1.82-1.46.58-2.86,1.08-4.19,1.5-2.15.74-3.51,1.19-4.08,1.34-.21.05-.32.13-.33.24-.03.16-.08.28-.17.35-.1.06-.19.07-.28.04-.1-.04-.26-.35-.48-.95-.5-1.27-.84-2.14-1.04-2.6-.06-.15-.07-.25-.04-.3.06-.06.25-.09.56-.07.56,0,1.36,0,2.41-.02.1-.17.19-.35.28-.54.36-.75.69-1.58,1-2.49h-4.77c-.19-.01-.28-.12-.28-.32,0-.19.09-.28.28-.28h11.63c.4-.52.79-1.03,1.17-1.52ZM101.18,27.24c0-.19.09-.28.28-.28h5.31c.36-.49.72-.99,1.09-1.48.1-.11.19-.17.26-.17.09,0,.19.04.32.13.77.66,1.38,1.18,1.84,1.56.11.09.17.17.17.26,0,.12-.03.21-.07.26-.04.02-.06.04-.07.04h-8.83c-.19-.01-.28-.12-.28-.32Z"/>
      <path class="cls-2" d="M116.6,23.85h-.26c-.16-.01-.24-.12-.24-.32,0-.19.08-.28.24-.28h2.04v-3.71c-.01-.14,0-.23.06-.28.05-.07.17-.1.37-.09l2.39.09c.38.01.63.06.74.15.12.09.19.2.19.35-.01.17-.14.32-.37.45-.27.16-.4.32-.39.48v2.47l.65-.82c.05-.07.12-.1.2-.09.07,0,.15.04.24.13l2.13,1.35c.19.14.26.28.22.45-.04.17-.22.28-.56.33-.14.04-.26.17-.37.41-.61,1.11-1.27,2.03-1.99,2.75.38.12.71.27.98.43.62.38,1.06.85,1.32,1.41.27.58.32,1.11.13,1.6-.09.32-.26.58-.52.78-.27.17-.56.24-.87.19-.32-.07-.56-.24-.72-.5-.17-.27-.22-.53-.15-.76.2-1.22.17-2.05-.09-2.47-.09-.16-.21-.28-.37-.37-.06.04-.1.07-.11.11v7.79c-.01.45-.11.73-.3.85-.26.19-.71.3-1.34.35-.57.05-.97.01-1.21-.11-.17-.1-.26-.46-.26-1.09v-5.64c-.82.43-1.53.77-2.13,1-.12.04-.21.03-.26-.02-.01-.11.02-.19.11-.24.95-.59,1.81-1.39,2.56-2.39.8-1.14,1.62-2.71,2.45-4.73h-4.53ZM122.3,35.87c0-.2.09-.3.28-.3h4.04v-9.2h-3.01c-.19,0-.28-.1-.28-.3s.09-.3.28-.3h3.01v-6.16c-.01-.14,0-.23.06-.28.05-.07.17-.1.37-.09l2.39.09c.38.01.63.06.74.15.12.09.19.2.19.35-.01.17-.14.32-.37.45-.27.16-.4.32-.39.48v5.01h.63c.28-.52.58-1.03.89-1.52.07-.12.15-.19.22-.19.09.01.19.06.3.15.67.67,1.19,1.19,1.58,1.58.1.1.15.19.15.28,0,.12-.02.21-.06.26-.04.02-.06.04-.07.04h-3.64v9.2h.78c.35-.59.71-1.19,1.08-1.78.09-.14.17-.2.26-.2.1,0,.2.06.32.17.73.75,1.32,1.35,1.78,1.8.1.12.15.23.15.32,0,.12-.03.21-.07.26-.04.02-.06.04-.07.04h-11.24c-.19,0-.28-.1-.28-.3Z"/>
    </g>
    <g>
      <g>
        <path class="cls-2" d="M5.18,49.57v-5.85h2.51l1.06,1.22,1.06-1.22h2.51v5.85h-2.59v-2.93l-.98,1.13-.98-1.13v2.93h-2.59Z"/>
        <path class="cls-2" d="M13.46,49.57v-5.85h2.59v5.85h-2.59Z"/>
        <path class="cls-2" d="M21.48,49.57h-2.59v-2.55l-2.23-3.3h2.62l.9,1.33.9-1.33h2.62l-2.23,3.3v2.55Z"/>
        <path class="cls-2" d="M26.34,49.57h-2.59l2.03-5.85h3.69l2.03,5.85h-2.59l-.34-.99h-1.9l-.34.99ZM27.15,47.2h.96l-.48-1.45-.48,1.45Z"/>
        <path class="cls-2" d="M32.07,49.57v-5.85h2.51l1.06,1.22,1.06-1.22h2.51v5.85h-2.59v-2.93l-.98,1.13-.98-1.13v2.93h-2.59Z"/>
        <path class="cls-2" d="M42.36,49.57h-2.59l2.03-5.85h3.69l2.03,5.85h-2.59l-.34-.99h-1.9l-.34.99ZM43.17,47.2h.96l-.48-1.45-.48,1.45Z"/>
      </g>
      <path class="cls-1" d="M44.78,9.34l-19.32,19.32L6.15,9.34C2.32,13.8,0,19.59,0,25.93c0,5.15,1.53,9.94,4.16,13.94h13.51c-.1-.09-.2-.19-.3-.29-3.91-3.91-3.91-10.26,0-14.18l8.1,8.1,8.1-8.1c3.91,3.91,3.91,10.26,0,14.18-.1.1-.2.19-.3.29h13.51c2.63-4.01,4.16-8.79,4.16-13.94,0-6.34-2.32-12.13-6.15-16.58Z"/>
      <circle class="cls-3" cx="25.46" cy="10.26" r="10.26"/>
    </g>
  </g>
</svg>